<svg width="118" height="112" viewBox="0 0 118 112" fill="none" xmlns="http://www.w3.org/2000/svg">
<path fill-rule="evenodd" clip-rule="evenodd" d="M19.0028 4.41832C5.10865 11.311 1.18221 18.9135 0.244405 40.7415C-0.484996 57.7047 0.16862 61.6293 5.67702 73.3383C9.12273 80.6619 16.1918 92.129 21.3852 98.8235C29.7283 109.576 31.8265 110.996 39.3881 110.996C45.6614 110.996 50.6441 108.846 58.0352 102.953C80.1541 85.317 84.2605 57.0295 68.0005 34.3143L63.4228 27.9171L59.2596 33.1621C46.8479 48.791 44.456 70.9002 53.2278 88.8912L57.5308 97.7105L51.7998 101.997C42.4052 109.025 34.8341 107.594 26.2187 97.162C11.7633 79.6595 5.88779 65.5884 4.98314 46.3206C4.05955 26.6657 7.49578 17.0146 17.7382 10.4837C26.3181 5.01288 44.5389 7.23901 57.0311 15.2839C68.9218 22.9394 82.8798 25.3983 87.0052 20.5635C89.4208 17.7313 88.3243 17.2543 79.8012 17.434C73.831 17.5585 67.4274 16.0467 64.0267 13.71L58.3028 9.77854L64.7727 7.38418C74.1768 3.90442 91.4148 4.45288 99.4311 8.48572C109.145 13.3735 113.562 23.0408 113.562 39.4187C113.562 55.9165 108.269 70.6743 95.7841 88.9742C84.8217 105.046 77.8072 108.982 70.93 102.926C64.7419 97.4754 61.7698 100.351 67.3682 106.373C76.1495 115.812 86.1763 111.567 98.768 93.0808C113.245 71.8243 116.555 63.0627 117.749 42.8409C119.028 21.2064 115.596 12.1429 103.381 4.89765C94.465 -0.393431 71.4912 -1.11703 60.2779 3.54032C54.4735 5.9485 51.2622 5.93005 42.732 3.4343C29.4583 -0.448743 28.7502 -0.418781 19.0028 4.41832ZM70.3924 50.6484C74.442 62.4727 72.6564 78.4566 66.4517 85.9138C61.1352 92.3019 57.5308 90.2048 54.4024 78.8944C50.2036 63.7263 55.9962 38.6329 63.3755 40.0271C65.3624 40.4027 68.5215 45.1822 70.3924 50.6484ZM61.6491 70.8587C61.7627 73.5434 62.324 74.0896 63.0794 72.2529C63.7638 70.5891 63.6786 68.6003 62.8924 67.8352C62.1061 67.0701 61.5472 68.4298 61.6491 70.8587Z" fill="black"/>
<path fill-rule="evenodd" clip-rule="evenodd" d="M64.1976 37.1551C64.8479 37.4406 65.1115 38.1348 64.7864 38.7058C64.5821 39.0644 64.4571 39.4977 64.3684 40.0295C64.3119 40.3675 64.2812 40.6492 64.2479 40.9539C64.2216 41.1946 64.1937 41.4496 64.1504 41.7581C63.8559 43.8548 63.7382 45.8443 63.7382 47.9742V72.2581C63.7382 73.7967 63.6167 75.3208 63.499 76.7981L63.4975 76.8159C63.3783 78.3121 63.2633 79.7608 63.2633 81.2097C63.2633 82.3366 63.1727 83.4577 63.0863 84.527C63.062 84.8269 63.0381 85.1228 63.0166 85.4135C62.9165 86.7673 62.8639 88.0545 63.0186 89.3455C63.0948 89.9803 62.5703 90.5491 61.8472 90.6159C61.124 90.6827 60.4761 90.2223 60.4 89.5874C60.2209 88.0935 60.2869 86.6456 60.3891 85.2638C60.4128 84.9424 60.4383 84.6264 60.4635 84.3142C60.5486 83.2588 60.6302 82.2465 60.6302 81.2097C60.6302 79.6737 60.7516 78.1514 60.8692 76.675L60.8709 76.6546C60.9901 75.1585 61.1051 73.7088 61.1051 72.2581V47.9742C61.1051 45.7648 61.2275 43.6796 61.5371 41.4752C61.5611 41.3045 61.5861 41.0851 61.6132 40.8474C61.6565 40.4678 61.7051 40.0418 61.7631 39.6944C61.8696 39.0562 62.0469 38.3468 62.4313 37.672C62.7564 37.1011 63.5472 36.8696 64.1976 37.1551Z" fill="black"/>
<path fill-rule="evenodd" clip-rule="evenodd" d="M76.0903 51.013C76.4323 51.5814 76.2475 52.3186 75.6775 52.6596C72.4322 54.601 68.9537 56.2466 65.5689 57.8478C65.0674 58.0851 64.5679 58.3213 64.0716 58.5575C63.4716 58.8429 62.7532 58.5893 62.467 57.9911C62.1807 57.3929 62.435 56.6766 63.035 56.3912C63.5388 56.1515 64.0426 55.9131 64.5457 55.675C67.9396 54.0691 71.3022 52.4779 74.4389 50.6014C75.009 50.2604 75.7483 50.4447 76.0903 51.013Z" fill="black"/>
<path fill-rule="evenodd" clip-rule="evenodd" d="M49.9842 64.5821C50.5484 64.1796 51.3421 64.297 51.757 64.8445C52.3716 65.6555 53.1413 66.2727 54.0511 66.8896C54.3349 67.0821 54.6521 67.2862 54.9854 67.5007C55.6491 67.9279 56.3766 68.3961 57.032 68.8951C57.4891 69.2431 57.9598 69.6466 58.3985 70.0227C58.6015 70.1967 58.7977 70.3649 58.9825 70.519C59.6068 71.0395 60.1851 71.4751 60.7843 71.7851C61.2649 72.0338 61.7044 72.381 62.0274 72.636C62.0809 72.6783 62.1311 72.718 62.1779 72.7543C62.5642 73.0546 62.8065 73.2098 63.0279 73.2813C63.6922 73.4962 64.0513 74.193 63.8298 74.8376C63.6084 75.4822 62.8903 75.8305 62.2259 75.6157C61.5349 75.3922 60.9843 74.9793 60.5925 74.6748C60.521 74.6192 60.4542 74.567 60.3914 74.5178C60.0599 74.2581 59.8375 74.0839 59.5909 73.9562C58.7392 73.5156 57.9907 72.9363 57.3296 72.3852C57.0847 72.181 56.8587 71.987 56.642 71.801C56.2384 71.4546 55.8672 71.136 55.4664 70.8308C54.8806 70.3849 54.3172 70.0234 53.7155 69.6375C53.3606 69.4098 52.9923 69.1736 52.5984 68.9065C51.5975 68.2279 50.5682 67.4295 49.7138 66.3021C49.299 65.7547 49.42 64.9846 49.9842 64.5821Z" fill="black"/>
<path fill-rule="evenodd" clip-rule="evenodd" d="M73.6332 81.7328C73.8232 82.4079 73.481 83.125 72.8689 83.3345C69.5021 84.4869 66.1581 85.3786 62.5054 85.4691C61.8646 85.485 61.3335 84.925 61.3191 84.2183C61.3047 83.5116 61.8125 82.9259 62.4532 82.91C65.7925 82.8272 68.8994 82.013 72.1809 80.8898C72.793 80.6802 73.4432 81.0577 73.6332 81.7328Z" fill="black"/>
</svg>
